<?xml version="1.0" encoding="UTF-8" standalone="no"?>
<!-- Created with Inkscape (http://www.inkscape.org/) -->

<svg
   xmlns:osb="http://www.openswatchbook.org/uri/2009/osb"
   xmlns:dc="http://purl.org/dc/elements/1.1/"
   xmlns:cc="http://creativecommons.org/ns#"
   xmlns:rdf="http://www.w3.org/1999/02/22-rdf-syntax-ns#"
   xmlns:svg="http://www.w3.org/2000/svg"
   xmlns="http://www.w3.org/2000/svg"
   xmlns:sodipodi="http://sodipodi.sourceforge.net/DTD/sodipodi-0.dtd"
   xmlns:inkscape="http://www.inkscape.org/namespaces/inkscape"
   width="48"
   height="48"
   viewBox="0 0 47.999999 47.999999"
   id="svg2"
   version="1.1"
   inkscape:version="0.91 r13725"
   sodipodi:docname="icon.svg"
   inkscape:export-filename="/home/schlipak/Pictures/crystal-l.png"
   inkscape:export-xdpi="87.889999"
   inkscape:export-ydpi="87.889999">
  <defs
     id="defs4">
    <linearGradient
       id="linearGradient5581"
       osb:paint="solid">
      <stop
         style="stop-color:#000000;stop-opacity:1;"
         offset="0"
         id="stop5583" />
    </linearGradient>
  </defs>
  <sodipodi:namedview
     id="base"
     pagecolor="#ffffff"
     bordercolor="#666666"
     borderopacity="1.0"
     inkscape:pageopacity="0.0"
     inkscape:pageshadow="2"
     inkscape:zoom="9.6470012"
     inkscape:cx="7.6205337"
     inkscape:cy="10.721374"
     inkscape:document-units="px"
     inkscape:current-layer="layer1"
     showgrid="false"
     units="px"
     inkscape:window-width="1920"
     inkscape:window-height="1020"
     inkscape:window-x="0"
     inkscape:window-y="33"
     inkscape:window-maximized="1" />
  <metadata
     id="metadata7">
    <rdf:RDF>
      <cc:Work
         rdf:about="">
        <dc:format>image/svg+xml</dc:format>
        <dc:type
           rdf:resource="http://purl.org/dc/dcmitype/StillImage" />
        <dc:title />
      </cc:Work>
    </rdf:RDF>
  </metadata>
  <g
     inkscape:label="Layer 1"
     inkscape:groupmode="layer"
     id="layer1"
     transform="translate(0,-1004.3622)">
    <path
       style="fill:#ffffff;fill-rule:evenodd;stroke:#000000;stroke-width:0.09830206px;stroke-linecap:butt;stroke-linejoin:miter;stroke-opacity:1"
       d="m 2.3410877,1021.9591 23.7322783,-7.2478 -5.922714,27.6254 z"
       id="path4222"
       inkscape:connector-curvature="0" />
    <path
       style="fill:#000000;fill-opacity:1;fill-rule:evenodd;stroke:none;stroke-width:1px;stroke-linecap:butt;stroke-linejoin:miter;stroke-opacity:1"
       d="M 18.201172 0.36523438 L 1.625 17.644531 L 7.5996094 41.191406 L 29.916016 47.634766 L 32.818359 44.578125 C 32.774915 44.542337 32.728154 44.511693 32.685547 44.474609 L 32.679688 44.464844 L 32.671875 44.455078 C 31.477996 43.373878 30.835938 41.887194 30.835938 40.246094 C 30.835938 38.605094 31.480401 37.122094 32.679688 36.058594 C 33.886088 34.986894 35.436932 34.441406 37.152344 34.441406 L 37.152344 34.449219 C 38.682147 34.449219 40.073766 34.888175 41.201172 35.746094 L 46.375 30.296875 L 42.767578 16.078125 L 42.101562 31.476562 L 42.060547 32.433594 L 32.384766 32.433594 L 31.160156 4.0917969 L 18.201172 0.36523438 z M 33.1875 4.6757812 L 34.300781 30.433594 L 40.144531 30.433594 L 41.056641 9.3378906 L 40.400391 6.75 L 33.1875 4.6757812 z M 24.820312 11.816406 L 18.992188 35.011719 L 3.0957031 17.847656 L 24.820312 11.816406 z M 37.152344 36.441406 L 37.152344 36.447266 C 35.836326 36.447266 34.847853 36.813847 34.007812 37.560547 L 34.005859 37.560547 C 33.196422 38.278347 32.835938 39.088353 32.835938 40.251953 C 32.835938 41.410653 33.198161 42.23315 34.005859 42.96875 C 34.069573 43.024037 34.141462 43.062225 34.207031 43.113281 L 39.8125 37.208984 C 39.086587 36.704288 38.239758 36.441406 37.152344 36.441406 z "
       transform="translate(0,1004.3622)"
       id="path3398" />
    <path
       style="font-style:normal;font-weight:normal;font-size:58.21509933px;line-height:125%;font-family:sans-serif;letter-spacing:0px;word-spacing:0px;fill:#f44336;fill-opacity:1;stroke:none;stroke-opacity:1"
       d="M 33.164062 4.1503906 L 34.300781 30.433594 L 40.144531 30.433594 L 41.28125 4.1503906 L 33.164062 4.1503906 z M 37.152344 36.441406 L 37.152344 36.447266 C 35.836326 36.447266 34.847853 36.813847 34.007812 37.560547 L 34.005859 37.560547 C 33.196422 38.278347 32.835938 39.088353 32.835938 40.251953 C 32.835938 41.410653 33.198161 42.23315 34.005859 42.96875 C 34.843553 43.69565 35.835027 44.056641 37.152344 44.056641 C 38.471421 44.056641 39.450503 43.696356 40.267578 42.972656 C 41.100172 42.232556 41.466797 41.411053 41.466797 40.251953 C 41.466797 39.092853 41.102657 38.286406 40.275391 37.566406 L 40.267578 37.556641 L 40.261719 37.546875 C 39.442911 36.805275 38.468362 36.441406 37.152344 36.441406 z "
       transform="translate(0,1004.3622)"
       id="text5587" />
  </g>
</svg>
